<svg width="76" height="76" viewBox="0 0 76 76" fill="none" xmlns="http://www.w3.org/2000/svg">
<rect x="0.5" y="0.5" width="75" height="75" rx="37.5" fill="#F7F7F7" stroke="#999999" stroke-linejoin="round" stroke-dasharray="8 8"/>
<path d="M28 31H43V23.5788C43.0053 21.5745 42.2159 19.649 40.8031 18.2201C40.1131 17.5162 39.2882 16.957 38.3773 16.5757C37.4663 16.1943 36.4878 15.9986 35.4995 16C33.5258 16.0036 31.6328 16.7799 30.2299 18.161C28.8269 19.5421 28.0267 21.4171 28.0023 23.3805C28.0011 23.4485 28 23.5131 28 23.5788L28 31Z" fill="#2F2E41"/>
<path d="M34.5 30C37.5376 30 40 27.3137 40 24C40 20.6863 37.5376 18 34.5 18C31.4624 18 29 20.6863 29 24C29 27.3137 31.4624 30 34.5 30Z" fill="#FFB9B9"/>
<path d="M40 34.4194L31 37C32.5164 33.8122 33.0016 30.8363 32.1803 28.129L38.5246 27C38.1168 29.5887 38.6459 32.2493 40 34.4194Z" fill="#FFB9B9"/>
<path d="M43.9505 57.8742C38.4261 61.3106 31.9908 65.2582 27.2385 61.4277L24.9779 50.6883C23.1812 49.1231 23.978 44.2931 26.4069 37.4086C26.5611 36.9716 26.8151 36.5746 27.1495 36.2479C27.4839 35.9212 27.89 35.6732 28.3369 35.5228L32.0825 34.2635C33.7425 35.6288 36.4636 34.8145 39.6716 33L43.3853 33.9476L45 45.7925C42.6692 49.2082 43.0763 53.7563 43.9505 57.8742Z" fill="#3F3D56"/>
<path d="M41 19.2482L39.5486 24L27 23.7705C27.0429 22.108 27.5894 20.5007 28.5631 19.1733C29.5368 17.8458 30.8891 16.8645 32.4311 16.3664C33.9731 15.8683 35.6279 15.8783 37.1641 16.3949C38.7004 16.9116 40.0414 17.9091 41 19.2482H41Z" fill="#2F2E41"/>
<path d="M38.5086 63L37 58.3521L46.0443 55.1796L42.6231 33C44.713 33.3902 46.5945 34.5447 47.9195 36.2497C49.2444 37.9548 49.9231 40.095 49.8299 42.2743L51 57.0881L38.5086 63Z" fill="#3F3D56"/>
</svg>
