<svg width="17" height="20" viewBox="0 0 17 20" fill="none" xmlns="http://www.w3.org/2000/svg">
<path d="M11.9 11.9286V15.7857M5.1 4.21429V2.28571C5.1 1.94472 5.2194 1.6177 5.43195 1.37658C5.64449 1.13546 5.93275 1 6.23333 1H10.7667C11.0672 1 11.3555 1.13546 11.5681 1.37658C11.7806 1.6177 11.9 1.94472 11.9 2.28571V4.21429H5.1ZM0 4.85714H17H0ZM1.7 4.85714V17.7143C1.7 18.0553 1.8194 18.3823 2.03195 18.6234C2.24449 18.8645 2.53275 19 2.83333 19H14.1667C14.4672 19 14.7555 18.8645 14.9681 18.6234C15.1806 18.3823 15.3 18.0553 15.3 17.7143V4.85714H1.7ZM8.5 9.35714V15.7857V9.35714ZM5.1 11.9286V15.7857V11.9286Z" stroke="#333333"/>
</svg>
