<svg width="40" height="38" viewBox="0 0 40 38" fill="none" xmlns="http://www.w3.org/2000/svg">
<path d="M38.8815 13.1955C38.591 12.1432 38.1399 11.1177 37.5486 10.1628C36.9776 9.19382 36.2837 8.30816 35.4857 7.52845C34.6877 6.74874 33.7798 6.07073 32.8083 5.52408C31.8122 4.93506 30.7627 4.49294 29.6857 4.21185C27.5172 3.64684 25.1044 3.65955 22.9619 4.21185C21.869 4.49294 20.8107 4.93506 19.832 5.51561C18.836 6.07638 17.9382 6.75721 17.1648 7.54258C16.7238 7.99035 16.3133 8.47484 15.9229 8.99182C16.0444 9.02007 16.1687 9.04268 16.2887 9.07375C17.3657 9.35626 18.4138 9.79696 19.4113 10.3874C19.6571 10.5258 19.8985 10.6727 20.1356 10.8281C20.1703 10.7871 20.205 10.7434 20.2411 10.7024C20.6575 10.2363 21.097 9.85911 21.5321 9.59073C22.0641 9.27857 22.5455 9.02431 22.9619 8.83221C23.3508 8.65423 23.7078 8.51439 24.0216 8.41693C24.3714 8.34489 24.7429 8.28274 25.1289 8.23189C26.1438 8.10052 27.3842 8.14149 28.4829 8.43388C29.1725 8.61751 29.8563 8.8986 30.5126 9.26868C31.1704 9.63876 31.766 10.0766 32.2835 10.5696C32.8054 11.0668 33.2767 11.6347 33.6714 12.2364C34.0458 12.848 34.3378 13.5119 34.5402 14.2125C34.7397 14.9117 34.8424 15.666 34.8424 16.4528C34.8424 17.1915 34.7469 17.9133 34.5576 18.6012C34.3696 19.2891 34.0834 19.9615 33.7032 20.6013C33.3244 21.244 32.8762 21.826 32.3717 22.3317C31.8701 22.8345 31.2961 23.2767 30.6673 23.6453C30.0442 24.0098 29.3691 24.288 28.6592 24.4702C27.9494 24.6525 27.1847 24.7301 26.3794 24.7075L25.5742 24.7174C25.525 24.7132 25.4773 24.7047 25.4282 24.7005C24.993 24.6581 24.5695 24.5903 24.1603 24.4886C23.4765 24.3191 22.8 24.0465 22.1465 23.6778C21.8314 23.5012 21.5321 23.3063 21.2444 23.1001C20.9264 22.8727 20.6242 22.6297 20.3467 22.3698C19.8205 21.8811 19.3622 21.3217 18.995 20.7242C18.6205 20.0858 18.3329 19.4078 18.1435 18.7086C17.9555 18.008 17.8601 17.2494 17.8601 16.4542C17.8601 15.868 17.9281 15.2931 18.0567 14.7408C17.7604 14.5218 17.4438 14.3184 17.1127 14.132C16.4578 13.7619 15.774 13.4808 15.083 13.2972C14.684 13.1913 14.2734 13.1192 13.8585 13.074C13.8484 13.1164 13.8311 13.1574 13.8195 13.1997C13.5333 14.2436 13.3901 15.3383 13.3901 16.4556C13.3901 17.6054 13.5419 18.7185 13.8441 19.7637C14.1433 20.8033 14.5843 21.8203 15.164 22.8035C15.7596 23.764 16.4477 24.6355 17.2096 25.394C17.7922 25.976 18.4398 26.5099 19.1482 26.9958C19.3665 27.1456 19.5877 27.2896 19.8176 27.4295C20.7833 27.9902 21.8256 28.4182 22.9142 28.6979C23.0486 28.7318 23.186 28.7587 23.3233 28.7897C24.3396 29.0186 25.4036 29.14 26.5515 29.116L24.6822 38.0008L36.8186 23.9886L36.8793 23.9095C37.6816 22.7484 38.2946 21.5364 38.6965 20.309C39.1042 19.0744 39.3095 17.7777 39.3095 16.4556C39.3138 15.3369 39.1678 14.2422 38.8815 13.1955Z" fill="white"/>
<path d="M25.4871 18.0563C25.1979 17.0039 24.7469 15.9785 24.1542 15.0236C23.5817 14.0546 22.8892 13.1689 22.0926 12.3892C21.497 11.8073 20.8393 11.2832 20.1396 10.8256C19.9025 10.6716 19.661 10.5233 19.4153 10.3849C18.4192 9.79584 17.3697 9.35372 16.2926 9.07122C16.1726 9.04014 16.0483 9.01754 15.9269 8.98929C14.967 8.76894 13.9723 8.65029 12.9604 8.65029C12.6915 8.65029 12.4168 8.65735 12.1306 8.67289C12.08 8.67571 12.0294 8.67854 11.9759 8.68278L13.0992 0L2.43595 13.8498C1.62926 14.9869 1.0163 16.1875 0.611516 17.4178C0.20673 18.6524 0 19.9632 0 21.3121C0 22.4323 0.151795 23.5383 0.453939 24.5963C0.753191 25.6514 1.19412 26.6769 1.76949 27.6501C2.368 28.646 3.0677 29.5373 3.84691 30.2986C4.62324 31.0585 5.48774 31.7253 6.42742 32.2874C7.39891 32.851 8.44413 33.272 9.53705 33.5375C10.6141 33.8017 11.7663 33.9344 12.9589 33.9344C14.0981 33.9344 15.2257 33.7932 16.3085 33.5135C17.4 33.2324 18.4611 32.7903 19.4558 32.1999C20.4417 31.6165 21.3351 30.9357 22.1129 30.1743C22.5524 29.7463 22.9571 29.2788 23.3301 28.7844C23.1942 28.7533 23.0569 28.7279 22.921 28.6926C21.8324 28.4115 20.7901 27.9849 19.8244 27.4241C19.5945 27.2843 19.3734 27.1388 19.1551 26.9905C19.0943 27.0555 19.0423 27.1289 18.9787 27.1911C18.477 27.6939 17.9031 28.136 17.2742 28.5047C16.6512 28.8691 15.976 29.1474 15.2662 29.3296C13.8755 29.687 12.2014 29.7039 10.7702 29.3494C10.0864 29.1799 9.40839 28.9073 8.75639 28.5386C8.09428 28.1657 7.48999 27.7264 6.95654 27.2292C6.43032 26.7405 5.97493 26.1825 5.60484 25.5836C5.23041 24.9466 4.94273 24.2671 4.75335 23.5679C4.56541 22.8673 4.47 22.1088 4.47 21.3135C4.47 20.5974 4.55818 19.8911 4.73455 19.216C4.90803 18.5492 5.18704 17.8868 5.57737 17.2257C5.92578 16.5915 6.36237 16.0095 6.87558 15.4982C7.38879 14.9826 7.96995 14.5334 8.58725 14.1718C9.24213 13.8018 9.94183 13.5136 10.6661 13.3144C11.188 13.1718 11.7388 13.0729 12.3113 13.0192H12.9589C13.264 13.0192 13.5661 13.039 13.8654 13.0715C14.2803 13.1167 14.6908 13.1887 15.0898 13.2947C15.7809 13.4783 16.4632 13.7594 17.1196 14.1295C17.4506 14.3159 17.7658 14.5193 18.0636 14.7383C18.357 14.9544 18.6346 15.186 18.8905 15.4304C19.4124 15.9276 19.8837 16.4954 20.2783 17.0972C20.6528 17.7088 20.9462 18.3741 21.1472 19.0733C21.3467 19.7725 21.4493 20.5268 21.4493 21.3135C21.4493 21.9238 21.3799 22.5213 21.2498 23.099C21.5375 23.3052 21.8368 23.5001 22.1519 23.6767C22.8054 24.0454 23.4819 24.318 24.1657 24.4875C24.5749 24.5892 24.9984 24.657 25.4336 24.6994C25.4509 24.6415 25.4712 24.585 25.4871 24.5285C25.7733 23.4832 25.9193 22.4026 25.9193 21.315C25.9179 20.1977 25.7719 19.103 25.4871 18.0563Z" fill="white"/>
</svg>
