<svg width="76" height="76" viewBox="0 0 76 76" fill="none" xmlns="http://www.w3.org/2000/svg">
<rect x="0.5" y="0.5" width="75" height="75" rx="37.5" fill="#F7F7F7" stroke="#999999" stroke-linejoin="round" stroke-dasharray="8 8"/>
<path opacity="0.54" fill-rule="evenodd" clip-rule="evenodd" d="M43.3751 17.3789C42.9285 15.2101 41.0149 13.5516 38.6547 13.5516C36.8048 13.5516 35.2101 14.5722 34.4446 16.1031C32.4671 16.3583 31 17.953 31 19.9305C31 22.0355 32.7223 23.7578 34.8273 23.7578H43.1199C44.906 23.7578 46.3094 22.3545 46.3094 20.5684C46.3094 18.9099 44.9698 17.5065 43.3751 17.3789ZM39.9296 19.2931V21.8447H37.378V19.2931H35.4644L38.6538 16.1036L41.8433 19.2931H39.9296Z" fill="#999999"/>
<path d="M20.5375 46.144C22.5175 46.144 23.5255 44.836 23.5255 42.496C23.5255 40.276 22.5055 38.98 20.4775 38.98C19.1575 38.98 18.2095 39.532 17.7535 40.552L19.0735 41.212C19.3135 40.66 19.7575 40.252 20.5015 40.252C21.4255 40.252 21.9175 40.876 21.9175 41.896V43.384C21.9175 44.38 21.4375 44.908 20.5375 44.908C19.6255 44.908 19.1695 44.428 19.1695 43.444V43.192H20.3095V41.992H19.0615C18.1855 41.992 17.6935 42.472 17.6935 43.42V43.504C17.6935 45.16 18.7855 46.144 20.5375 46.144ZM22.2253 38.236H24.5653V37.096H21.9853V36.136H20.6173V36.664C20.6173 37.756 21.1573 38.236 22.2253 38.236ZM25.6616 46H27.4136L28.5176 40.864H28.5536L29.6576 46H31.3976L32.3696 39.124H30.9176L30.4256 44.488H30.3896L29.2496 39.124H27.8216L26.6696 44.488H26.6456L26.1536 39.124H24.7016L25.6616 46ZM35.9007 46H37.0767V44.716H35.9127V39.604C35.9127 37.852 35.4207 36.784 34.3287 36.508V36.46H37.6887V35.188H32.9487V36.484C33.8487 36.604 34.3887 37.372 34.3887 38.812V44.512C34.3887 45.448 34.8807 46 35.9007 46ZM38.2918 46H39.8158V42.652H41.2918C42.0118 42.652 42.3598 43.048 42.3598 43.888V46H43.8478V43.576C43.8478 42.4 43.3198 41.692 42.3718 41.524V41.464C43.0918 41.284 43.7758 40.768 43.7758 39.772V39.124H42.2158V40.228C42.2158 40.96 41.8798 41.476 41.0158 41.476H39.8158V39.124H38.2918V46ZM47.9574 38.98C46.6614 38.98 45.7494 39.52 45.2574 40.324L46.2054 41.188C46.5534 40.696 47.0334 40.276 47.8614 40.276C48.8094 40.276 49.2294 40.732 49.2294 41.596V41.956H47.6094C46.0014 41.956 45.1494 42.676 45.1494 43.96C45.1494 45.292 45.9894 46 47.4054 46H48.2334V44.728H47.5854C46.9974 44.728 46.6614 44.488 46.6614 43.996V43.804C46.6614 43.336 47.0094 43.072 47.6814 43.072H49.2294V46H50.7414V41.548C50.7414 39.856 49.8054 38.98 47.9574 38.98ZM54.8698 46H55.3618V44.668H55.0498C54.1138 44.668 53.7298 44.224 53.7298 43.036V41.908C53.7298 40.864 54.2338 40.3 55.1338 40.3C56.0218 40.3 56.5018 40.828 56.5018 41.824V46H58.0258V41.824C58.0258 40.024 57.0538 38.98 55.1818 38.98C53.1178 38.98 52.1578 40.276 52.1578 42.676C52.1578 45.028 52.9858 46 54.8698 46ZM23.1585 62.144C24.6825 62.144 25.6905 61.352 25.6905 59.972C25.6905 58.832 25.0905 58.112 23.6265 57.92L23.1225 57.848C22.5105 57.776 22.1265 57.524 22.1265 57.032C22.1265 56.564 22.5105 56.252 23.1225 56.252C23.7225 56.252 24.2145 56.528 24.6225 56.996L25.6305 56.108C25.0785 55.388 24.2745 54.98 23.1585 54.98C21.8145 54.98 20.6985 55.64 20.6985 57.116C20.6985 58.304 21.4425 58.88 22.8225 59.096L23.2545 59.168C24.0345 59.288 24.2745 59.648 24.2745 60.044C24.2745 60.548 23.8305 60.86 23.2065 60.86C22.4505 60.86 21.8745 60.524 21.3585 59.876L20.3625 60.788C21.0105 61.616 21.8745 62.144 23.1585 62.144ZM23.579 65.516H24.479C25.139 65.516 25.487 65.168 25.487 64.52V62.816H24.335L24.347 64.604H23.711V63.872C23.711 63.14 23.375 62.816 22.643 62.816H21.911V63.896H22.559V64.52C22.559 65.168 22.919 65.516 23.579 65.516ZM29.9775 62.144C31.9695 62.144 32.7975 61.172 32.7975 59.156V52.64H31.2735V59.336C31.2735 60.344 30.8775 60.848 29.9775 60.848C29.0775 60.848 28.6815 60.344 28.6815 59.336V55.124H27.1455V59.156C27.1455 61.172 27.9735 62.144 29.9775 62.144ZM37.4435 54.98C35.5475 54.98 34.4555 55.988 34.4555 57.776V58.28H36.2195V58.34C35.4995 58.484 35.0435 59.024 35.0435 60.02V60.788H34.1795V62H35.0435C36.0875 62 36.4835 61.604 36.4835 60.512V59.78C36.4835 58.784 36.6875 58.352 37.3715 58.316V57.308H35.9315C36.0275 56.612 36.5075 56.24 37.3955 56.24C38.3555 56.24 38.8955 56.768 38.8955 57.752V62H40.4195V57.824C40.4195 56.036 39.4355 54.98 37.4435 54.98ZM44.8333 62H46.3693V57.38C46.3693 55.832 45.4693 54.98 43.8733 54.98C42.6373 54.98 41.8333 55.46 41.3293 56.264L42.3013 57.14C42.6253 56.66 43.0933 56.276 43.7893 56.276C44.4973 56.276 44.8333 56.696 44.8333 57.452V62ZM48.7944 62H50.5464L51.6504 56.864H51.6864L52.7904 62H54.5304L55.5024 55.124H54.0504L53.5584 60.488H53.5224L52.3824 55.124H50.9544L49.8024 60.488H49.7784L49.2864 55.124H47.8344L48.7944 62Z" fill="#999999"/>
</svg>
